<?xml version="1.0" encoding="UTF-8"?>
<svg width="48px" height="48px" viewBox="0 0 48 48" version="1.1" xmlns="http://www.w3.org/2000/svg" xmlns:xlink="http://www.w3.org/1999/xlink">
    <!-- Generator: Sketch 42 (36781) - http://www.bohemiancoding.com/sketch -->
    <title>内容</title>
    <desc>Created with Sketch.</desc>
    <defs></defs>
    <g id="Page-1" stroke="none" stroke-width="1" fill="none" fill-rule="evenodd">
        <g id="竖向steps" transform="translate(-92.000000, -183.000000)">
            <g id="带小图标/实心/带红色警示信息" transform="translate(92.000000, 181.000000)">
                <g id="Group-2" transform="translate(0.000000, 0.011906)">
                    <g id="1">
                        <g id="内容" transform="translate(0.000000, 0.988094)">
                            <circle id="Mask" fill="#108EE9" cx="24" cy="24.9880937" r="24"></circle>
                            <path d="M43.2944489,39.2623596 C39.0122692,37.1331604 32.5040898,33.9036071 28.4331524,31.9174655 C26.3767524,34.2623958 23.3359524,36.6137286 19.9023524,37.6357341 C17.7439524,38.2779889 15.7991524,38.522886 13.7655524,38.1063208 C11.7515524,37.6937571 10.2679524,36.7509831 9.40395242,35.8054079 C8.96315242,35.3228165 8.45715242,34.708973 8.09155242,33.9798837 C8.12555242,34.0719202 8.14915242,34.1275423 8.14915242,34.1275423 C8.14915242,34.1275423 7.93835242,33.7641982 7.77755242,33.1855686 C7.69515242,32.9070581 7.63915242,32.6157425 7.61715242,32.3100213 C7.59955242,32.1107422 7.59475242,31.8998585 7.60635242,31.6809717 C7.58915242,31.3092242 7.60395242,30.9190694 7.68715242,30.5189107 C7.88915242,29.5429235 8.30635242,28.404872 9.38435242,27.3492532 C11.7515524,25.0303333 14.9215524,24.9054837 16.5639524,24.9154877 C18.9963524,24.9294933 23.2235524,25.9935154 26.7823524,27.2536153 C27.7687524,25.1523817 28.4015524,22.9062906 28.8099524,21.4080963 L14.0099524,21.4080963 L14.0099524,19.8074613 L21.6099524,19.8074613 L21.6099524,16.6061913 L12.4099524,16.6061913 L12.4099524,15.0055563 L21.6099524,15.0055563 L21.6099524,11.8042863 C21.6099524,11.364912 21.6967524,11.0039688 22.4099524,11.0039688 L26.0099524,11.0039688 L26.0099524,15.0055563 L36.0099524,15.0055563 L36.0099524,16.6061913 L26.0099524,16.6061913 L26.0099524,19.8074613 L34.0099524,19.8074613 C34.0099524,19.8074613 33.2063524,24.2876386 30.6943524,28.7033904 C35.8358438,30.5414512 42.9198943,33.2987012 46.0331191,34.5198844 C45.6009827,35.5298462 45.1048431,36.4533386 44.7189026,37.1281586 C44.332962,37.8029785 43.4765167,39.0350342 43.2944489,39.2623596 Z M14.5207524,35.9942829 C16.9999524,36.1739542 19.6435524,34.9442663 21.6359524,33.5401093 C22.4163524,32.989891 23.7531524,31.8830519 25.0315524,30.1755745 C22.1671524,28.6965877 18.5915524,27.0595383 14.7699524,27.2196018 C12.8167524,27.3016343 11.4187524,27.7061948 10.3963524,28.2472095 C9.81275242,28.7165957 9.18755242,29.4016675 9.00675242,30.2740135 C8.75995242,31.4640857 8.95475242,32.9542769 10.1031524,34.1235407 C11.4939524,35.5397025 13.6075524,35.9282567 14.5207524,35.9942829 Z" id="Imported-Layers-2" fill="#FFFFFF"></path>
                        </g>
                    </g>
                </g>
            </g>
        </g>
    </g>
</svg>